<svg xmlns="http://www.w3.org/2000/svg" viewBox="0 0 24 24" fill="#666666">
  <path fill-rule="evenodd" d="M11.54 22.351l.07.04.028.016a.76.76 0 00.723 0l.028-.015.071-.041a21.273 21.273 0 003.868-3.007c1.15-1.074 2.744-2.762 3.423-5.065.659-2.24.51-4.467-.218-6.127C18.813 6.547 16.996 4.5 12 4.5c-4.996 0-6.813 2.047-7.532 3.71-.727 1.66-.877 3.888-.218 6.127.679 2.303 2.273 3.991 3.423 5.065a21.273 21.273 0 003.868 3.007zM12 12.75a2.25 2.25 0 100-4.5 2.25 2.25 0 000 4.5z" clip-rule="evenodd" />
</svg>
